<?xml version="1.0" encoding="utf-8"?>
<!-- Generator: Adobe Illustrator 24.3.0, SVG Export Plug-In . SVG Version: 6.00 Build 0)  -->
<svg version="1.1" id="レイヤー_1" xmlns="http://www.w3.org/2000/svg" xmlns:xlink="http://www.w3.org/1999/xlink" x="0px"
	 y="0px" viewBox="0 0 83 83" style="enable-background:new 0 0 83 83;" xml:space="preserve">
<style type="text/css">
	.st0{opacity:0.13;}
	.st1{fill:#FFFFFF;}
</style>
<g class="st0">
	<g>
		<g>
			<path class="st1" d="M83,20.4l-0.2,0.1L42.1,0.4l-0.2-0.1V0h-1v0.2l-0.2,0.1L0,20.5l0,0v42l0,0l1.1,0.6l38.5,19.1l1.2,0.6V83h1
				v-0.2l0.1,0l1.1-0.6L81.8,63l1-0.5l0.2,0.1l0,0L83,20.4L83,20.4z M82.3,60.8l-13-19.3l13-19.3V60.8z M81.1,22.3L68.4,41.1H43.2
				L81.1,22.3z M42.7,40.4l12.6-18.8h25.3L42.7,40.4z M55.3,20.8l-13-19.3l39,19.3H55.3z M54.5,21.2L41.9,40V2.4L54.5,21.2z
				 M42.7,42.6l37.9,18.8H55.3L42.7,42.6z M54.5,61.8L41.9,80.6V43L54.5,61.8z M43.2,41.9h25.3l12.6,18.8L43.2,41.9z M2.2,21.6h25.3
				l12.6,18.8L2.2,21.6z M39.6,41.1H14.3L1.7,22.3L39.6,41.1z M1.5,20.8l39-19.3l-13,19.3H1.5z M13.5,41.5l-13,19.3V22.2L13.5,41.5z
				 M14.3,41.9h25.3L1.7,60.7L14.3,41.9z M40.1,42.6L27.4,61.4H2.2L40.1,42.6z M40.9,43v37.6L28.3,61.8L40.9,43z M40.9,40L28.3,21.2
				L40.9,2.4V40z M1.5,62.2h26l12.8,19.1l0.1,0.2L1.5,62.2z M42.4,81.4l12.9-19.2h26l-39,19.3L42.4,81.4z"/>
			<path class="st1" d="M41.9,0.1V0H13l0.1,0.2L0.5,19V0H0v21.4h0.5v-0.2L41.2,1l0.2-0.1L41.7,1l0.4-0.6l0.1-0.1L41.9,0.1z M14,0.6
				h26L1,19.9L14,0.6z"/>
			<path class="st1" d="M82.3,0v19L69.7,0.2L69.8,0H40.9v0.1l-0.1,0l-0.2,0.1l0,0.1L41.2,1l0.2-0.1L41.7,1l40.7,20.2v0.2H83V0H82.3z
				 M68.8,0.6l13,19.3l-39-19.3H68.8z"/>
			<path class="st1" d="M41.7,81.8l-0.2,0.1l-0.2-0.1l-0.9-0.5L1.7,62.2l-1.2-0.6v-0.2H0V83h0.5V63.8l12.6,18.8L12.9,83h29v-0.4
				l0.2-0.1L41.7,81.8z M14,82.2L1.2,63.1L1,62.9l39,19.3H14z"/>
			<path class="st1" d="M82.3,61.4v0.2l-1.2,0.6L42.4,81.4l-0.8,0.4l-0.2,0.1l-0.2-0.1l-0.5,0.7l0.2,0.1V83h29l-0.3-0.4l12.6-18.8
				V83H83V61.4H82.3z M68.8,82.2h-26l39-19.3L81.8,63L68.8,82.2z"/>
		</g>
	</g>
</g>
</svg>
